<?xml version="1.0" encoding="utf-8"?>
<svg xmlns="http://www.w3.org/2000/svg" xmlns:xlink="http://www.w3.org/1999/xlink" style="margin: auto; background: none; display: block; shape-rendering: auto;" width="217px" height="217px" viewBox="0 0 100 100" preserveAspectRatio="xMidYMid">
<g transform="rotate(0 50 50)">
  <rect x="37.5" y="10.5" rx="8.75" ry="2.5" width="25" height="5" fill="#6a63b6">
    <animate attributeName="opacity" values="1;0" keyTimes="0;1" dur="0.3759398496240602s" begin="-0.3701561596298439s" repeatCount="indefinite"></animate>
  </rect>
</g><g transform="rotate(5.538461538461538 50 50)">
  <rect x="37.5" y="10.5" rx="8.75" ry="2.5" width="25" height="5" fill="#6a63b6">
    <animate attributeName="opacity" values="1;0" keyTimes="0;1" dur="0.3759398496240602s" begin="-0.3643724696356276s" repeatCount="indefinite"></animate>
  </rect>
</g><g transform="rotate(11.076923076923077 50 50)">
  <rect x="37.5" y="10.5" rx="8.75" ry="2.5" width="25" height="5" fill="#6a63b6">
    <animate attributeName="opacity" values="1;0" keyTimes="0;1" dur="0.3759398496240602s" begin="-0.3585887796414113s" repeatCount="indefinite"></animate>
  </rect>
</g><g transform="rotate(16.615384615384617 50 50)">
  <rect x="37.5" y="10.5" rx="8.75" ry="2.5" width="25" height="5" fill="#6a63b6">
    <animate attributeName="opacity" values="1;0" keyTimes="0;1" dur="0.3759398496240602s" begin="-0.352805089647195s" repeatCount="indefinite"></animate>
  </rect>
</g><g transform="rotate(22.153846153846153 50 50)">
  <rect x="37.5" y="10.5" rx="8.75" ry="2.5" width="25" height="5" fill="#6a63b6">
    <animate attributeName="opacity" values="1;0" keyTimes="0;1" dur="0.3759398496240602s" begin="-0.3470213996529786s" repeatCount="indefinite"></animate>
  </rect>
</g><g transform="rotate(27.692307692307693 50 50)">
  <rect x="37.5" y="10.5" rx="8.75" ry="2.5" width="25" height="5" fill="#6a63b6">
    <animate attributeName="opacity" values="1;0" keyTimes="0;1" dur="0.3759398496240602s" begin="-0.3412377096587623s" repeatCount="indefinite"></animate>
  </rect>
</g><g transform="rotate(33.23076923076923 50 50)">
  <rect x="37.5" y="10.5" rx="8.75" ry="2.5" width="25" height="5" fill="#6a63b6">
    <animate attributeName="opacity" values="1;0" keyTimes="0;1" dur="0.3759398496240602s" begin="-0.335454019664546s" repeatCount="indefinite"></animate>
  </rect>
</g><g transform="rotate(38.76923076923077 50 50)">
  <rect x="37.5" y="10.5" rx="8.75" ry="2.5" width="25" height="5" fill="#6a63b6">
    <animate attributeName="opacity" values="1;0" keyTimes="0;1" dur="0.3759398496240602s" begin="-0.3296703296703297s" repeatCount="indefinite"></animate>
  </rect>
</g><g transform="rotate(44.30769230769231 50 50)">
  <rect x="37.5" y="10.5" rx="8.75" ry="2.5" width="25" height="5" fill="#6a63b6">
    <animate attributeName="opacity" values="1;0" keyTimes="0;1" dur="0.3759398496240602s" begin="-0.3238866396761134s" repeatCount="indefinite"></animate>
  </rect>
</g><g transform="rotate(49.84615384615385 50 50)">
  <rect x="37.5" y="10.5" rx="8.75" ry="2.5" width="25" height="5" fill="#6a63b6">
    <animate attributeName="opacity" values="1;0" keyTimes="0;1" dur="0.3759398496240602s" begin="-0.3181029496818971s" repeatCount="indefinite"></animate>
  </rect>
</g><g transform="rotate(55.38461538461539 50 50)">
  <rect x="37.5" y="10.5" rx="8.75" ry="2.5" width="25" height="5" fill="#6a63b6">
    <animate attributeName="opacity" values="1;0" keyTimes="0;1" dur="0.3759398496240602s" begin="-0.31231925968768076s" repeatCount="indefinite"></animate>
  </rect>
</g><g transform="rotate(60.92307692307692 50 50)">
  <rect x="37.5" y="10.5" rx="8.75" ry="2.5" width="25" height="5" fill="#6a63b6">
    <animate attributeName="opacity" values="1;0" keyTimes="0;1" dur="0.3759398496240602s" begin="-0.30653556969346446s" repeatCount="indefinite"></animate>
  </rect>
</g><g transform="rotate(66.46153846153847 50 50)">
  <rect x="37.5" y="10.5" rx="8.75" ry="2.5" width="25" height="5" fill="#6a63b6">
    <animate attributeName="opacity" values="1;0" keyTimes="0;1" dur="0.3759398496240602s" begin="-0.30075187969924816s" repeatCount="indefinite"></animate>
  </rect>
</g><g transform="rotate(72 50 50)">
  <rect x="37.5" y="10.5" rx="8.75" ry="2.5" width="25" height="5" fill="#6a63b6">
    <animate attributeName="opacity" values="1;0" keyTimes="0;1" dur="0.3759398496240602s" begin="-0.29496818970503186s" repeatCount="indefinite"></animate>
  </rect>
</g><g transform="rotate(77.53846153846153 50 50)">
  <rect x="37.5" y="10.5" rx="8.75" ry="2.5" width="25" height="5" fill="#6a63b6">
    <animate attributeName="opacity" values="1;0" keyTimes="0;1" dur="0.3759398496240602s" begin="-0.28918449971081556s" repeatCount="indefinite"></animate>
  </rect>
</g><g transform="rotate(83.07692307692308 50 50)">
  <rect x="37.5" y="10.5" rx="8.75" ry="2.5" width="25" height="5" fill="#6a63b6">
    <animate attributeName="opacity" values="1;0" keyTimes="0;1" dur="0.3759398496240602s" begin="-0.2834008097165992s" repeatCount="indefinite"></animate>
  </rect>
</g><g transform="rotate(88.61538461538461 50 50)">
  <rect x="37.5" y="10.5" rx="8.75" ry="2.5" width="25" height="5" fill="#6a63b6">
    <animate attributeName="opacity" values="1;0" keyTimes="0;1" dur="0.3759398496240602s" begin="-0.2776171197223829s" repeatCount="indefinite"></animate>
  </rect>
</g><g transform="rotate(94.15384615384616 50 50)">
  <rect x="37.5" y="10.5" rx="8.75" ry="2.5" width="25" height="5" fill="#6a63b6">
    <animate attributeName="opacity" values="1;0" keyTimes="0;1" dur="0.3759398496240602s" begin="-0.2718334297281666s" repeatCount="indefinite"></animate>
  </rect>
</g><g transform="rotate(99.6923076923077 50 50)">
  <rect x="37.5" y="10.5" rx="8.75" ry="2.5" width="25" height="5" fill="#6a63b6">
    <animate attributeName="opacity" values="1;0" keyTimes="0;1" dur="0.3759398496240602s" begin="-0.2660497397339503s" repeatCount="indefinite"></animate>
  </rect>
</g><g transform="rotate(105.23076923076923 50 50)">
  <rect x="37.5" y="10.5" rx="8.75" ry="2.5" width="25" height="5" fill="#6a63b6">
    <animate attributeName="opacity" values="1;0" keyTimes="0;1" dur="0.3759398496240602s" begin="-0.260266049739734s" repeatCount="indefinite"></animate>
  </rect>
</g><g transform="rotate(110.76923076923077 50 50)">
  <rect x="37.5" y="10.5" rx="8.75" ry="2.5" width="25" height="5" fill="#6a63b6">
    <animate attributeName="opacity" values="1;0" keyTimes="0;1" dur="0.3759398496240602s" begin="-0.2544823597455177s" repeatCount="indefinite"></animate>
  </rect>
</g><g transform="rotate(116.3076923076923 50 50)">
  <rect x="37.5" y="10.5" rx="8.75" ry="2.5" width="25" height="5" fill="#6a63b6">
    <animate attributeName="opacity" values="1;0" keyTimes="0;1" dur="0.3759398496240602s" begin="-0.24869866975130137s" repeatCount="indefinite"></animate>
  </rect>
</g><g transform="rotate(121.84615384615384 50 50)">
  <rect x="37.5" y="10.5" rx="8.75" ry="2.5" width="25" height="5" fill="#6a63b6">
    <animate attributeName="opacity" values="1;0" keyTimes="0;1" dur="0.3759398496240602s" begin="-0.24291497975708506s" repeatCount="indefinite"></animate>
  </rect>
</g><g transform="rotate(127.38461538461539 50 50)">
  <rect x="37.5" y="10.5" rx="8.75" ry="2.5" width="25" height="5" fill="#6a63b6">
    <animate attributeName="opacity" values="1;0" keyTimes="0;1" dur="0.3759398496240602s" begin="-0.23713128976286874s" repeatCount="indefinite"></animate>
  </rect>
</g><g transform="rotate(132.92307692307693 50 50)">
  <rect x="37.5" y="10.5" rx="8.75" ry="2.5" width="25" height="5" fill="#6a63b6">
    <animate attributeName="opacity" values="1;0" keyTimes="0;1" dur="0.3759398496240602s" begin="-0.23134759976865243s" repeatCount="indefinite"></animate>
  </rect>
</g><g transform="rotate(138.46153846153845 50 50)">
  <rect x="37.5" y="10.5" rx="8.75" ry="2.5" width="25" height="5" fill="#6a63b6">
    <animate attributeName="opacity" values="1;0" keyTimes="0;1" dur="0.3759398496240602s" begin="-0.22556390977443613s" repeatCount="indefinite"></animate>
  </rect>
</g><g transform="rotate(144 50 50)">
  <rect x="37.5" y="10.5" rx="8.75" ry="2.5" width="25" height="5" fill="#6a63b6">
    <animate attributeName="opacity" values="1;0" keyTimes="0;1" dur="0.3759398496240602s" begin="-0.2197802197802198s" repeatCount="indefinite"></animate>
  </rect>
</g><g transform="rotate(149.53846153846155 50 50)">
  <rect x="37.5" y="10.5" rx="8.75" ry="2.5" width="25" height="5" fill="#6a63b6">
    <animate attributeName="opacity" values="1;0" keyTimes="0;1" dur="0.3759398496240602s" begin="-0.2139965297860035s" repeatCount="indefinite"></animate>
  </rect>
</g><g transform="rotate(155.07692307692307 50 50)">
  <rect x="37.5" y="10.5" rx="8.75" ry="2.5" width="25" height="5" fill="#6a63b6">
    <animate attributeName="opacity" values="1;0" keyTimes="0;1" dur="0.3759398496240602s" begin="-0.20821283979178717s" repeatCount="indefinite"></animate>
  </rect>
</g><g transform="rotate(160.6153846153846 50 50)">
  <rect x="37.5" y="10.5" rx="8.75" ry="2.5" width="25" height="5" fill="#6a63b6">
    <animate attributeName="opacity" values="1;0" keyTimes="0;1" dur="0.3759398496240602s" begin="-0.20242914979757087s" repeatCount="indefinite"></animate>
  </rect>
</g><g transform="rotate(166.15384615384616 50 50)">
  <rect x="37.5" y="10.5" rx="8.75" ry="2.5" width="25" height="5" fill="#6a63b6">
    <animate attributeName="opacity" values="1;0" keyTimes="0;1" dur="0.3759398496240602s" begin="-0.19664545980335457s" repeatCount="indefinite"></animate>
  </rect>
</g><g transform="rotate(171.69230769230768 50 50)">
  <rect x="37.5" y="10.5" rx="8.75" ry="2.5" width="25" height="5" fill="#6a63b6">
    <animate attributeName="opacity" values="1;0" keyTimes="0;1" dur="0.3759398496240602s" begin="-0.19086176980913824s" repeatCount="indefinite"></animate>
  </rect>
</g><g transform="rotate(177.23076923076923 50 50)">
  <rect x="37.5" y="10.5" rx="8.75" ry="2.5" width="25" height="5" fill="#6a63b6">
    <animate attributeName="opacity" values="1;0" keyTimes="0;1" dur="0.3759398496240602s" begin="-0.18507807981492194s" repeatCount="indefinite"></animate>
  </rect>
</g><g transform="rotate(182.76923076923077 50 50)">
  <rect x="37.5" y="10.5" rx="8.75" ry="2.5" width="25" height="5" fill="#6a63b6">
    <animate attributeName="opacity" values="1;0" keyTimes="0;1" dur="0.3759398496240602s" begin="-0.17929438982070564s" repeatCount="indefinite"></animate>
  </rect>
</g><g transform="rotate(188.30769230769232 50 50)">
  <rect x="37.5" y="10.5" rx="8.75" ry="2.5" width="25" height="5" fill="#6a63b6">
    <animate attributeName="opacity" values="1;0" keyTimes="0;1" dur="0.3759398496240602s" begin="-0.1735106998264893s" repeatCount="indefinite"></animate>
  </rect>
</g><g transform="rotate(193.84615384615384 50 50)">
  <rect x="37.5" y="10.5" rx="8.75" ry="2.5" width="25" height="5" fill="#6a63b6">
    <animate attributeName="opacity" values="1;0" keyTimes="0;1" dur="0.3759398496240602s" begin="-0.167727009832273s" repeatCount="indefinite"></animate>
  </rect>
</g><g transform="rotate(199.3846153846154 50 50)">
  <rect x="37.5" y="10.5" rx="8.75" ry="2.5" width="25" height="5" fill="#6a63b6">
    <animate attributeName="opacity" values="1;0" keyTimes="0;1" dur="0.3759398496240602s" begin="-0.1619433198380567s" repeatCount="indefinite"></animate>
  </rect>
</g><g transform="rotate(204.92307692307693 50 50)">
  <rect x="37.5" y="10.5" rx="8.75" ry="2.5" width="25" height="5" fill="#6a63b6">
    <animate attributeName="opacity" values="1;0" keyTimes="0;1" dur="0.3759398496240602s" begin="-0.15615962984384038s" repeatCount="indefinite"></animate>
  </rect>
</g><g transform="rotate(210.46153846153845 50 50)">
  <rect x="37.5" y="10.5" rx="8.75" ry="2.5" width="25" height="5" fill="#6a63b6">
    <animate attributeName="opacity" values="1;0" keyTimes="0;1" dur="0.3759398496240602s" begin="-0.15037593984962408s" repeatCount="indefinite"></animate>
  </rect>
</g><g transform="rotate(216 50 50)">
  <rect x="37.5" y="10.5" rx="8.75" ry="2.5" width="25" height="5" fill="#6a63b6">
    <animate attributeName="opacity" values="1;0" keyTimes="0;1" dur="0.3759398496240602s" begin="-0.14459224985540778s" repeatCount="indefinite"></animate>
  </rect>
</g><g transform="rotate(221.53846153846155 50 50)">
  <rect x="37.5" y="10.5" rx="8.75" ry="2.5" width="25" height="5" fill="#6a63b6">
    <animate attributeName="opacity" values="1;0" keyTimes="0;1" dur="0.3759398496240602s" begin="-0.13880855986119145s" repeatCount="indefinite"></animate>
  </rect>
</g><g transform="rotate(227.07692307692307 50 50)">
  <rect x="37.5" y="10.5" rx="8.75" ry="2.5" width="25" height="5" fill="#6a63b6">
    <animate attributeName="opacity" values="1;0" keyTimes="0;1" dur="0.3759398496240602s" begin="-0.13302486986697515s" repeatCount="indefinite"></animate>
  </rect>
</g><g transform="rotate(232.6153846153846 50 50)">
  <rect x="37.5" y="10.5" rx="8.75" ry="2.5" width="25" height="5" fill="#6a63b6">
    <animate attributeName="opacity" values="1;0" keyTimes="0;1" dur="0.3759398496240602s" begin="-0.12724117987275885s" repeatCount="indefinite"></animate>
  </rect>
</g><g transform="rotate(238.15384615384616 50 50)">
  <rect x="37.5" y="10.5" rx="8.75" ry="2.5" width="25" height="5" fill="#6a63b6">
    <animate attributeName="opacity" values="1;0" keyTimes="0;1" dur="0.3759398496240602s" begin="-0.12145748987854253s" repeatCount="indefinite"></animate>
  </rect>
</g><g transform="rotate(243.69230769230768 50 50)">
  <rect x="37.5" y="10.5" rx="8.75" ry="2.5" width="25" height="5" fill="#6a63b6">
    <animate attributeName="opacity" values="1;0" keyTimes="0;1" dur="0.3759398496240602s" begin="-0.11567379988432622s" repeatCount="indefinite"></animate>
  </rect>
</g><g transform="rotate(249.23076923076923 50 50)">
  <rect x="37.5" y="10.5" rx="8.75" ry="2.5" width="25" height="5" fill="#6a63b6">
    <animate attributeName="opacity" values="1;0" keyTimes="0;1" dur="0.3759398496240602s" begin="-0.1098901098901099s" repeatCount="indefinite"></animate>
  </rect>
</g><g transform="rotate(254.76923076923077 50 50)">
  <rect x="37.5" y="10.5" rx="8.75" ry="2.5" width="25" height="5" fill="#6a63b6">
    <animate attributeName="opacity" values="1;0" keyTimes="0;1" dur="0.3759398496240602s" begin="-0.10410641989589359s" repeatCount="indefinite"></animate>
  </rect>
</g><g transform="rotate(260.3076923076923 50 50)">
  <rect x="37.5" y="10.5" rx="8.75" ry="2.5" width="25" height="5" fill="#6a63b6">
    <animate attributeName="opacity" values="1;0" keyTimes="0;1" dur="0.3759398496240602s" begin="-0.09832272990167729s" repeatCount="indefinite"></animate>
  </rect>
</g><g transform="rotate(265.84615384615387 50 50)">
  <rect x="37.5" y="10.5" rx="8.75" ry="2.5" width="25" height="5" fill="#6a63b6">
    <animate attributeName="opacity" values="1;0" keyTimes="0;1" dur="0.3759398496240602s" begin="-0.09253903990746097s" repeatCount="indefinite"></animate>
  </rect>
</g><g transform="rotate(271.38461538461536 50 50)">
  <rect x="37.5" y="10.5" rx="8.75" ry="2.5" width="25" height="5" fill="#6a63b6">
    <animate attributeName="opacity" values="1;0" keyTimes="0;1" dur="0.3759398496240602s" begin="-0.08675534991324466s" repeatCount="indefinite"></animate>
  </rect>
</g><g transform="rotate(276.9230769230769 50 50)">
  <rect x="37.5" y="10.5" rx="8.75" ry="2.5" width="25" height="5" fill="#6a63b6">
    <animate attributeName="opacity" values="1;0" keyTimes="0;1" dur="0.3759398496240602s" begin="-0.08097165991902835s" repeatCount="indefinite"></animate>
  </rect>
</g><g transform="rotate(282.46153846153845 50 50)">
  <rect x="37.5" y="10.5" rx="8.75" ry="2.5" width="25" height="5" fill="#6a63b6">
    <animate attributeName="opacity" values="1;0" keyTimes="0;1" dur="0.3759398496240602s" begin="-0.07518796992481204s" repeatCount="indefinite"></animate>
  </rect>
</g><g transform="rotate(288 50 50)">
  <rect x="37.5" y="10.5" rx="8.75" ry="2.5" width="25" height="5" fill="#6a63b6">
    <animate attributeName="opacity" values="1;0" keyTimes="0;1" dur="0.3759398496240602s" begin="-0.06940427993059572s" repeatCount="indefinite"></animate>
  </rect>
</g><g transform="rotate(293.53846153846155 50 50)">
  <rect x="37.5" y="10.5" rx="8.75" ry="2.5" width="25" height="5" fill="#6a63b6">
    <animate attributeName="opacity" values="1;0" keyTimes="0;1" dur="0.3759398496240602s" begin="-0.06362058993637942s" repeatCount="indefinite"></animate>
  </rect>
</g><g transform="rotate(299.0769230769231 50 50)">
  <rect x="37.5" y="10.5" rx="8.75" ry="2.5" width="25" height="5" fill="#6a63b6">
    <animate attributeName="opacity" values="1;0" keyTimes="0;1" dur="0.3759398496240602s" begin="-0.05783689994216311s" repeatCount="indefinite"></animate>
  </rect>
</g><g transform="rotate(304.61538461538464 50 50)">
  <rect x="37.5" y="10.5" rx="8.75" ry="2.5" width="25" height="5" fill="#6a63b6">
    <animate attributeName="opacity" values="1;0" keyTimes="0;1" dur="0.3759398496240602s" begin="-0.052053209947946794s" repeatCount="indefinite"></animate>
  </rect>
</g><g transform="rotate(310.15384615384613 50 50)">
  <rect x="37.5" y="10.5" rx="8.75" ry="2.5" width="25" height="5" fill="#6a63b6">
    <animate attributeName="opacity" values="1;0" keyTimes="0;1" dur="0.3759398496240602s" begin="-0.046269519953730485s" repeatCount="indefinite"></animate>
  </rect>
</g><g transform="rotate(315.6923076923077 50 50)">
  <rect x="37.5" y="10.5" rx="8.75" ry="2.5" width="25" height="5" fill="#6a63b6">
    <animate attributeName="opacity" values="1;0" keyTimes="0;1" dur="0.3759398496240602s" begin="-0.04048582995951418s" repeatCount="indefinite"></animate>
  </rect>
</g><g transform="rotate(321.2307692307692 50 50)">
  <rect x="37.5" y="10.5" rx="8.75" ry="2.5" width="25" height="5" fill="#6a63b6">
    <animate attributeName="opacity" values="1;0" keyTimes="0;1" dur="0.3759398496240602s" begin="-0.03470213996529786s" repeatCount="indefinite"></animate>
  </rect>
</g><g transform="rotate(326.7692307692308 50 50)">
  <rect x="37.5" y="10.5" rx="8.75" ry="2.5" width="25" height="5" fill="#6a63b6">
    <animate attributeName="opacity" values="1;0" keyTimes="0;1" dur="0.3759398496240602s" begin="-0.028918449971081554s" repeatCount="indefinite"></animate>
  </rect>
</g><g transform="rotate(332.3076923076923 50 50)">
  <rect x="37.5" y="10.5" rx="8.75" ry="2.5" width="25" height="5" fill="#6a63b6">
    <animate attributeName="opacity" values="1;0" keyTimes="0;1" dur="0.3759398496240602s" begin="-0.023134759976865243s" repeatCount="indefinite"></animate>
  </rect>
</g><g transform="rotate(337.84615384615387 50 50)">
  <rect x="37.5" y="10.5" rx="8.75" ry="2.5" width="25" height="5" fill="#6a63b6">
    <animate attributeName="opacity" values="1;0" keyTimes="0;1" dur="0.3759398496240602s" begin="-0.01735106998264893s" repeatCount="indefinite"></animate>
  </rect>
</g><g transform="rotate(343.38461538461536 50 50)">
  <rect x="37.5" y="10.5" rx="8.75" ry="2.5" width="25" height="5" fill="#6a63b6">
    <animate attributeName="opacity" values="1;0" keyTimes="0;1" dur="0.3759398496240602s" begin="-0.011567379988432621s" repeatCount="indefinite"></animate>
  </rect>
</g><g transform="rotate(348.9230769230769 50 50)">
  <rect x="37.5" y="10.5" rx="8.75" ry="2.5" width="25" height="5" fill="#6a63b6">
    <animate attributeName="opacity" values="1;0" keyTimes="0;1" dur="0.3759398496240602s" begin="-0.005783689994216311s" repeatCount="indefinite"></animate>
  </rect>
</g><g transform="rotate(354.46153846153845 50 50)">
  <rect x="37.5" y="10.5" rx="8.75" ry="2.5" width="25" height="5" fill="#6a63b6">
    <animate attributeName="opacity" values="1;0" keyTimes="0;1" dur="0.3759398496240602s" begin="0s" repeatCount="indefinite"></animate>
  </rect>
</g>
<!-- [ldio] generated by https://loading.io/ --></svg>